HIERARCHY
ROOT Hips
{
	OFFSET 0.00000 0.00000 0.00000
	CHANNELS 6 Xposition Yposition Zposition Zrotation Yrotation Xrotation 
	JOINT LHipJoint
	{
		OFFSET 0 0 0
		CHANNELS 3 Zrotation Yrotation Xrotation
		JOINT LeftHip
		{
			OFFSET 3.13874 -1.57224 1.49786
			CHANNELS 3 Zrotation Yrotation Xrotation
			JOINT LeftKnee
			{
				OFFSET 2.10955 -5.79594 0.00000
				CHANNELS 3 Zrotation Yrotation Xrotation
				JOINT LeftAnkle
				{
					OFFSET 2.41843 -6.64458 0.00000
					CHANNELS 3 Zrotation Yrotation Xrotation
					JOINT LeftToe
					{
						OFFSET 0.04713 -0.12948 1.66229
						CHANNELS 3 Zrotation Yrotation Xrotation
						End Site
						{
							OFFSET 0.00000 -0.00000 0.85167
						}
					}
				}
			}
		}
	}
	JOINT RHipJoint
	{
		OFFSET 0 0 0
		CHANNELS 3 Zrotation Yrotation Xrotation
		JOINT RightHip
		{
			OFFSET -3.13988 -1.57224 1.49786
			CHANNELS 3 Zrotation Yrotation Xrotation
			JOINT RightKnee
			{
				OFFSET -2.15006 -5.90725 0.00000
				CHANNELS 3 Zrotation Yrotation Xrotation
				JOINT RightAnkle
				{
					OFFSET -2.34496 -6.44273 0.00000
					CHANNELS 3 Zrotation Yrotation Xrotation
					JOINT RightToe
					{
						OFFSET -0.08699 -0.23900 1.55223
						CHANNELS 3 Zrotation Yrotation Xrotation
						End Site
						{
							OFFSET -0.00000 -0.00000 0.80281
						}
					}
				}
			}
		}
	}
	JOINT lowerback
	{
		OFFSET 0 0 0
		CHANNELS 3 Zrotation Yrotation Xrotation
		JOINT Chest
		{
			OFFSET 0.01292 1.96517 -0.16495
			CHANNELS 3 Zrotation Yrotation Xrotation
			JOINT Chest2
			{
				OFFSET 0.02122 1.88666 0.19706
				CHANNELS 3 Zrotation Yrotation Xrotation
				JOINT lowerneck
				{
					OFFSET 0 0 0
					CHANNELS 3 Zrotation Yrotation Xrotation
					JOINT Neck
					{
						OFFSET -0.01683 1.81591 0.07903
						CHANNELS 3 Zrotation Yrotation Xrotation
						JOINT Head
						{
							OFFSET 0.00815 1.74013 -0.47700
							CHANNELS 3 Zrotation Yrotation Xrotation
							End Site
							{
								OFFSET -0.00204 1.83225 -0.16933
							}
						}
					}
				}
				JOINT LeftCollar
				{
					OFFSET 0 0 0
					CHANNELS 3 Zrotation Yrotation Xrotation
					JOINT LeftShoulder
					{
						OFFSET 3.38482 1.41533 0.19802
CHANNELS 3 Zrotation Xrotation Yrotation
						JOINT LeftElbow
						{
OFFSET 0 -4.327120 0.000000
CHANNELS 3 Zrotation Xrotation Yrotation
							JOINT LeftWrist
							{
OFFSET 0 -3.285870 -0.000000
CHANNELS 3 Zrotation Xrotation Yrotation
								JOINT lhand
								{
									OFFSET 0 0 0
CHANNELS 3 Zrotation Xrotation Yrotation
									JOINT LFingers
									{
OFFSET 0 -0.433160 -0.000000
CHANNELS 3 Zrotation Xrotation Yrotation
										End Site
										{
OFFSET 0 -0.349220 -0.000000
										}
									}
								}
								JOINT LThumb
								{
OFFSET 0 0.000000 0.000000
CHANNELS 3 Zrotation Xrotation Yrotation
									End Site
									{
OFFSET 0 -0.354560 0.354560
									}
								}
							}
						}
					}
				}
				JOINT RightCollar
				{
					OFFSET 0 0 0
					CHANNELS 3 Zrotation Yrotation Xrotation
					JOINT RightShoulder
					{
						OFFSET -3.09725 1.62858 -0.14144
CHANNELS 3 Zrotation Xrotation Yrotation
						JOINT RightElbow
						{
OFFSET 0 -4.291040 0.000000
CHANNELS 3 Zrotation Xrotation Yrotation
							JOINT RightWrist
							{
OFFSET 0 -3.227200 -0.000000
CHANNELS 3 Zrotation Xrotation Yrotation
								JOINT rhand
								{
									OFFSET 0 0 0
CHANNELS 3 Zrotation Xrotation Yrotation
									JOINT RFingers
									{
OFFSET 0 -0.543620 -0.000000
CHANNELS 3 Zrotation Xrotation Yrotation
										End Site
										{
OFFSET 0 -0.438280 -0.000000
										}
									}
								}
								JOINT RThumb
								{
OFFSET 0 0.000000 0.000000
CHANNELS 3 Zrotation Xrotation Yrotation
									End Site
									{
OFFSET 0 -0.444970 0.444970
									}
								}
							}
						}
					}
				}
			}
		}
	}
}
MOTION
Frames: 6
Frame Time: 0.008333333333333333
36.001663 15.542799 7.697658 -364.548397 -25.769669 -352.005740 0.000000 0.000000 0.000000 -7.736140 -26.670556 -25.440538 0.981645 6.240484 17.505582 3.693763 -9.811994 -34.867476 5.247480 -13.657145 -41.881095 0.000000 0.000000 0.000000 44.520175 5.081762 2.596506 -0.014790 -0.771389 2.120015 -0.111315 3.158497 -5.998156 -5.316566 13.730088 -42.169869 -10.115173 -5.426083 26.131162 13.036364 -9.879506 -13.616193 36.598881 5.288448 -35.395146 -7.769771 7.193441 -10.460024 -7.643145 16.125634 45.748472 0.374471 3.512206 20.153048 0.000000 0.000000 0.000000 -35.736650 41.296868 27.346932 26.967716 -38.147873 9.479375 24.566432 8.005705 -23.838988 0.000000 0.000000 0.000000 -7.125000 0.000000 0.000000 -5.124812 55.819262 1.362798 0.000000 0.000000 0.000000 -53.247981 9.017322 95.778524 -26.794325 -37.982175 -9.372375 -25.887458 -7.783726 18.544296 0.000000 0.000000 0.000000 7.125000 0.000000 0.000000 2.264555 50.415328 -0.302213
35.953133 15.539589 7.938265 -364.806070 -27.950173 -351.647447 0.000000 0.000000 0.000000 -5.547052 -31.902065 -24.128783 0.470926 4.359578 12.097501 3.508152 -10.551009 -33.911903 4.986754 -13.367137 -40.762072 0.000000 0.000000 0.000000 44.742273 6.262547 4.045879 -0.017214 -0.846189 2.325605 -0.099022 3.223391 -5.688465 -5.800544 14.229750 -44.170987 -10.160912 -5.183496 25.983805 13.301117 -9.426172 -13.301279 36.577126 5.220815 -34.727910 -7.801905 7.236149 -11.119498 -8.052619 16.349709 44.877074 0.277158 3.581912 19.809771 0.000000 0.000000 0.000000 -35.770893 41.240034 27.548969 26.382994 -37.583626 9.120552 24.736855 7.911563 -24.026420 0.000000 0.000000 0.000000 -7.125000 0.000000 0.000000 -5.010248 56.052569 1.360285 0.000000 0.000000 0.000000 -52.642256 7.746662 95.930454 -26.492019 -37.690284 -9.186881 -26.120105 -7.734173 18.678762 0.000000 0.000000 0.000000 7.125000 0.000000 0.000000 2.061236 50.600857 -0.284595
35.895428 15.533353 8.184562 -364.987861 -30.198010 -351.260977 0.000000 0.000000 0.000000 -3.359026 -36.628581 -23.568236 0.216562 2.995206 8.265477 3.228886 -11.570024 -32.474767 4.980981 -13.362338 -40.740418 0.000000 0.000000 0.000000 44.441363 5.826641 4.578011 -0.024249 -1.004731 2.761862 -0.035902 4.715531 -4.448714 -6.402969 14.807669 -46.578105 -10.271324 -4.909732 25.727776 13.534404 -8.970222 -13.030469 36.550184 5.176309 -34.081157 -7.927724 7.313862 -11.777615 -8.256337 16.600507 44.218977 0.296257 3.655610 19.575768 0.000000 0.000000 0.000000 -35.870321 41.229150 28.072272 25.576397 -36.787353 8.632737 25.856093 9.283640 -24.413846 0.000000 0.000000 0.000000 -7.125000 0.000000 0.000000 -3.941003 56.703179 1.131740 0.000000 0.000000 0.000000 -52.139848 6.740046 95.982742 -26.165875 -37.371990 -8.988179 -26.232286 -7.994946 18.662535 0.000000 0.000000 0.000000 7.125000 0.000000 0.000000 1.945650 50.602630 -0.268740
35.827199 15.521864 8.440418 -365.206199 -32.251266 -350.774125 0.000000 0.000000 0.000000 -0.829784 -41.162439 -24.129129 0.125129 2.279187 6.278070 2.840996 -13.464224 -30.511482 5.042735 -13.426672 -40.996844 0.000000 0.000000 0.000000 44.178559 5.585871 5.047727 -0.037354 -1.242612 3.416578 0.032264 6.123788 -3.349815 -6.922467 15.266201 -48.580326 -10.206522 -4.704261 25.378325 13.750251 -8.548897 -12.857398 36.350589 5.100825 -33.558187 -8.290626 7.274328 -12.541693 -8.158624 16.653720 43.747219 0.461936 3.631735 19.413435 0.000000 0.000000 0.000000 -35.916270 41.413505 28.413574 24.770179 -35.966727 8.155172 26.441816 10.293127 -25.075948 0.000000 0.000000 0.000000 -7.125000 0.000000 0.000000 -3.537843 57.535861 1.087481 0.000000 0.000000 0.000000 -51.773019 6.242056 95.754531 -25.925559 -37.134969 -8.842712 -25.963351 -8.382424 18.379127 0.000000 0.000000 0.000000 7.125000 0.000000 0.000000 2.153382 50.249607 -0.277507
35.738974 15.508515 8.701879 -365.449579 -34.228140 -350.314434 0.000000 0.000000 0.000000 0.835844 -43.978448 -25.197141 0.113194 2.168605 5.972020 2.131701 -15.329296 -26.756772 5.716146 -14.143482 -43.823862 0.000000 0.000000 0.000000 44.083410 5.855144 5.759355 -0.058053 -1.549149 4.261351 0.071958 6.879376 -2.793121 -6.907914 15.253653 -48.524871 -10.195827 -4.517452 24.972864 13.946721 -8.184142 -12.696378 36.126692 4.969775 -32.931474 -8.425304 7.198496 -13.124744 -8.189099 16.590597 43.213803 0.499440 3.598970 19.207239 0.000000 0.000000 0.000000 -35.856835 41.398255 29.190219 23.822274 -34.972183 7.605994 26.423965 11.389433 -25.674226 0.000000 0.000000 0.000000 -7.125000 0.000000 0.000000 -3.781965 58.166488 1.219618 0.000000 0.000000 0.000000 -51.476073 6.073478 94.936132 -25.762132 -36.972854 -8.744234 -25.528686 -8.868340 17.707354 0.000000 0.000000 0.000000 7.125000 0.000000 0.000000 2.443807 49.449262 -0.268289
35.635108 15.494818 8.968040 -365.656093 -36.120864 -349.909199 0.000000 0.000000 0.000000 0.969818 -44.573181 -26.340846 0.148562 2.476409 6.824567 1.196415 -16.320829 -21.085596 5.788010 -14.217693 -44.120951 0.000000 0.000000 0.000000 43.986419 6.205809 6.584683 -0.081193 -1.834602 5.048921 0.082083 7.135650 -2.744015 -6.841160 15.196688 -48.271125 -10.212198 -4.375469 24.523985 14.104861 -7.903231 -12.553504 35.799999 4.743826 -32.184558 -8.312379 7.041429 -13.689237 -8.429708 16.398250 42.623370 0.373859 3.529658 19.026158 0.000000 0.000000 0.000000 -35.548699 41.202902 30.046166 22.708398 -33.764518 6.977204 26.827709 13.064557 -26.078372 0.000000 0.000000 0.000000 -7.125000 0.000000 0.000000 -3.483898 58.689279 1.165331 0.000000 0.000000 0.000000 -51.248313 5.937054 94.249807 -25.699288 -36.910249 -8.706419 -25.840270 -9.249703 17.578966 0.000000 0.000000 0.000000 7.125000 0.000000 0.000000 2.111137 49.361095 -0.226243
